<?xml version="1.0" encoding="UTF-8"?>
<!DOCTYPE svg PUBLIC "-//W3C//DTD SVG 1.1//EN" "http://www.w3.org/Graphics/SVG/1.1/DTD/svg11.dtd">
<svg version="1.1" xmlns="http://www.w3.org/2000/svg" xmlns:xlink="http://www.w3.org/1999/xlink" x="0" y="0" width="515" height="450" viewBox="0, 0, 515, 450">
  <g id="Layer_1">
    <path d="M393.481,222.291 C434.215,218.437 473.756,217.798 508.686,229.573 C509.354,225.113 510.023,220.655 510.692,216.196 C504.616,213.297 496.869,210.733 489.958,210.511 C480.594,198.248 481.764,181.806 472.4,169.544 C443.761,67.319 375.337,8.298 291.569,3.317 C202.743,-1.965 97.745,49.355 43.838,23.569 C94.622,176.956 250.563,258.985 464.374,177.57 C470.617,186.265 470.338,199.809 476.581,208.504 C452.249,207.539 423.902,207.91 399.57,209.955 C397.541,214.067 395.512,218.179 393.481,222.291" fill="#5EB245"/>
    <path d="M464.346,169.348 C440.146,85.36 382.234,16.415 291.112,10.997 C216.923,6.585 117.929,49.827 56.461,35.937 C125.497,213.335 326.195,12.227 464.346,169.348" fill="#87C047"/>
    <path d="M134.701,173.692 C156.964,133.796 203.86,106.305 258.113,106.305 C309.702,106.305 354.634,131.163 378.063,167.907 C386.621,181.329 395.168,191.986 406.408,203.256 C412.088,208.954 415.642,217.073 415.642,226.084 C415.642,235.095 412.088,243.214 406.408,248.911 C395.168,260.183 386.621,270.839 378.063,284.261 C354.634,321.004 309.702,345.862 258.113,345.862 C203.86,345.862 156.964,318.373 134.701,278.476 C127.12,264.89 117.472,254.995 104.079,247.077 C95.755,242.156 90.422,234.581 90.422,226.084 C90.422,217.586 95.755,210.01 104.079,205.091 C117.473,197.173 127.119,187.278 134.701,173.692" fill="#ECCD26"/>
    <path d="M207.058,337.29 C175.391,326.2 149.559,305.103 134.701,278.476 C127.12,264.89 117.472,254.995 104.079,247.077 C103.897,246.97 103.717,246.861 103.539,246.751 L235.645,246.751 C241.401,283.239 229.842,315.825 207.058,337.29" fill="#DABF2D"/>
    <path d="M134.701,173.692 C156.964,133.796 203.86,106.305 258.113,106.305 C309.702,106.305 354.634,131.163 378.063,167.907 C385.545,179.641 393.017,189.259 402.288,199.025 C396.114,243.021 334.822,277.572 260.111,277.572 C183.332,277.572 120.725,241.084 117.548,195.353 C124.359,189.306 129.938,182.229 134.701,173.692" fill="#FBDA20"/>
    <path d="M236.529,276.4 C202.188,272.962 171.999,262.147 150.604,246.751 L235.645,246.751 C237.261,256.994 237.507,266.93 236.529,276.4" fill="#ECCD26"/>
    <path d="M222.743,118.221 C253.202,111.242 277.895,120.443 277.895,138.771 C277.895,157.1 253.202,177.615 222.743,184.594 C192.283,191.573 167.591,182.373 167.591,164.043 C167.591,145.715 192.283,125.199 222.743,118.221" fill="#FEEF85"/>
    <path d="M235.645,246.751 C235.645,311.395 183.241,363.799 118.597,363.799 C53.954,363.799 1.549,311.395 1.549,246.751 L235.645,246.751" fill="#ECCD26"/>
    <path d="M226.114,246.751 C226.114,305.115 177.978,352.429 118.597,352.429 C59.217,352.429 11.081,305.115 11.081,246.751 L226.114,246.751" fill="#FBDE28"/>
    <path d="M216.583,246.751 C216.583,298.571 172.714,340.58 118.597,340.58 C64.48,340.58 20.611,298.571 20.611,246.751 L216.583,246.751" fill="#FFFCEB"/>
    <path d="M33.879,277.185 C34.958,279.937 36.974,281.879 39.763,282.857 C42.554,283.834 45.341,283.572 47.901,282.094 L83.536,261.52 C85.673,260.286 86.679,257.858 86.04,255.475 C85.402,253.091 83.315,251.49 80.849,251.49 L39.376,251.49 C36.337,251.49 33.722,252.73 31.796,255.081 C29.87,257.432 29.171,260.241 29.77,263.221 C30.737,268.029 32.119,272.695 33.879,277.185 z M61.463,313.909 C63.779,315.719 66.48,316.366 69.365,315.808 C72.249,315.246 74.511,313.632 75.98,311.087 L95.619,277.071 C96.852,274.937 96.509,272.328 94.764,270.584 C93.02,268.839 90.412,268.496 88.276,269.73 L53.751,289.663 C51.065,291.213 49.401,293.667 48.954,296.736 C48.507,299.804 49.401,302.631 51.532,304.883 C54.599,308.125 57.919,311.144 61.463,313.909 z M102.385,331.99 C98.258,331.275 94.229,330.292 90.317,329.059 C87.385,328.136 85.243,326.129 84.129,323.266 C83.015,320.4 83.238,317.476 84.775,314.812 L103.827,281.812 C105.062,279.676 107.491,278.669 109.874,279.307 C112.257,279.946 113.858,282.033 113.858,284.5 L113.858,322.336 C113.858,325.328 112.659,327.906 110.368,329.832 C108.078,331.76 105.334,332.501 102.385,331.99 z M146.878,329.059 C149.81,328.136 151.952,326.129 153.066,323.266 C154.181,320.403 153.957,317.476 152.42,314.815 L133.368,281.812 C132.133,279.676 129.704,278.669 127.321,279.307 C124.938,279.946 123.338,282.033 123.338,284.5 L123.338,322.336 C123.338,325.328 124.536,327.903 126.827,329.832 C129.117,331.76 131.86,332.501 134.81,331.99 C138.937,331.275 142.966,330.292 146.878,329.059 z M185.663,304.884 C187.794,302.631 188.689,299.804 188.242,296.736 C187.794,293.667 186.13,291.213 183.445,289.663 L148.919,269.73 C146.783,268.496 144.175,268.84 142.431,270.584 C140.687,272.329 140.343,274.937 141.577,277.071 L161.215,311.087 C162.685,313.632 164.946,315.246 167.83,315.808 C170.714,316.366 173.416,315.719 175.732,313.912 C179.275,311.146 182.596,308.125 185.663,304.884 z M207.424,263.222 C206.458,268.029 205.075,272.695 203.315,277.185 C202.237,279.937 200.221,281.879 197.43,282.857 C194.641,283.832 191.854,283.572 189.293,282.094 L153.66,261.52 C151.522,260.286 150.516,257.858 151.155,255.475 C151.793,253.091 153.879,251.49 156.346,251.49 L197.818,251.49 C200.857,251.49 203.473,252.73 205.399,255.081 C207.325,257.433 208.023,260.242 207.424,263.222" fill="#FBE964"/>
    <path d="M233.492,421.71 C234.887,422.646 236.302,423.566 237.737,424.463 C281.272,451.725 332.327,454.49 371.515,435.861 C385.829,429.058 398.672,424.581 414.112,421.008 C421.917,419.203 429.206,414.23 433.967,406.625 C438.729,399.02 440.021,390.29 438.237,382.482 C434.709,367.029 433.128,353.521 432.998,337.674 C432.643,294.284 407.859,249.563 364.325,222.303 C362.89,221.405 361.445,220.531 359.995,219.686 L233.492,421.71" fill="#FBE85E"/>
    <path d="M233.492,421.71 C234.887,422.646 236.302,423.566 237.737,424.463 C281.272,451.725 332.327,454.49 371.515,435.861 C385.829,429.058 398.672,424.581 414.112,421.008 C421.917,419.203 429.206,414.23 433.967,406.625 C430.934,411.47 425.202,413.959 418.488,414.02 C405.209,414.141 394.409,415.355 382.669,418.048 C350.524,425.426 304.236,415.051 260.702,387.788 C259.267,386.892 257.845,385.982 256.441,385.062 L233.492,421.71" fill="#FBDA20"/>
    <path d="M256.531,295.519 C221.58,351.334 211.251,407.856 233.46,421.761 C255.669,435.669 302.005,401.694 336.955,345.878 C371.906,290.063 382.235,233.541 360.026,219.636 C337.817,205.729 291.481,239.702 256.531,295.519" fill="#D6BC2E"/>
    <path d="M260.437,297.964 C228.333,349.235 218.562,400.977 238.613,413.532 C258.664,426.088 300.944,394.703 333.05,343.432 C365.153,292.161 374.925,240.42 354.873,227.864 C334.822,215.309 292.541,246.694 260.437,297.964" fill="#FBDE28"/>
    <path d="M264.507,300.513 C235.248,347.237 225.963,394.155 243.765,405.303 C261.57,416.451 299.721,387.61 328.979,340.884 C358.238,294.158 367.523,247.241 349.72,236.094 C331.917,224.945 293.766,253.787 264.507,300.513" fill="#FFFCEB"/>
    <path d="M283.755,278.573 C285.658,276.24 287.505,274.822 289.092,274.477 C290.679,274.13 291.563,274.952 291.646,276.852 L292.683,300.403 C292.75,301.928 291.782,304.242 290.274,306.161 C288.767,308.082 287.185,309.015 286.337,308.486 L273.339,300.345 C272.311,299.701 272.074,298.111 272.648,295.72 C273.225,293.327 274.453,290.8 276.224,288.362 C278.7,284.953 281.218,281.686 283.755,278.573 z M313.03,250.286 C314.956,248.93 316.412,248.766 317.224,249.812 C318.036,250.859 317.979,252.823 317.061,255.476 L305.242,289.574 C304.511,291.684 302.983,293.861 301.441,294.993 C299.898,296.123 298.816,295.859 298.75,294.335 L297.682,270.06 C297.602,268.245 298.27,265.944 299.637,263.333 C301.003,260.723 302.688,258.528 304.561,256.919 C307.426,254.454 310.258,252.236 313.03,250.286 z M339.11,240.458 C340.457,240.582 341.045,241.79 340.811,243.959 C340.578,246.127 339.589,248.652 337.946,251.277 L315.523,287.085 C314.19,289.216 312.513,290.673 311.349,290.71 C310.185,290.75 309.895,289.358 310.626,287.248 L322.822,252.054 C323.699,249.526 325.116,247.063 326.961,244.863 C328.805,242.664 330.562,241.343 332.091,241.003 C334.585,240.448 336.936,240.259 339.11,240.458 z M353.003,254.096 C353.365,255.62 352.942,257.778 351.77,260.398 C350.597,263.018 349.001,265.367 347.107,267.26 L320.774,293.602 C319.194,295.182 317.816,295.528 317.342,294.464 C316.869,293.4 317.447,291.254 318.78,289.125 L341.203,253.317 C342.847,250.692 344.686,248.7 346.535,247.542 C348.384,246.386 349.728,246.386 350.428,247.545 C351.556,249.414 352.411,251.611 353.003,254.096 z M350.707,285.814 C351.672,282.159 352.431,278.643 352.974,275.298 C353.353,272.973 352.865,271.593 351.568,271.319 C350.273,271.044 348.53,271.954 346.546,273.938 L321.031,299.461 C319.452,301.041 318.16,303.365 317.817,305.248 C317.474,307.128 318.183,307.986 319.584,307.381 L341.888,297.741 C343.557,297.02 345.334,295.414 347.086,293.044 C348.838,290.675 350.076,288.202 350.707,285.814 z M334.793,325.037 C333.374,327.694 331.637,329.903 329.736,331.467 C327.836,333.028 326.302,333.509 325.272,332.867 L312.274,324.727 C311.427,324.195 311.576,322.366 312.646,320.17 C313.714,317.976 315.373,316.093 316.774,315.489 L338.412,306.136 C340.159,305.382 341.285,305.819 341.666,307.398 C342.048,308.976 341.579,311.257 340.311,313.986 C338.618,317.63 336.778,321.319 334.793,325.037 z M309.731,362.823 C312.269,359.71 314.786,356.443 317.263,353.032 C319.033,350.597 320.261,348.069 320.838,345.676 C321.414,343.284 321.176,341.695 320.147,341.051 L307.149,332.912 C306.302,332.382 304.72,333.315 303.212,335.236 C301.704,337.153 300.736,339.469 300.804,340.992 L301.84,364.545 C301.924,366.443 302.808,367.267 304.395,366.92 C305.98,366.574 307.828,365.156 309.731,362.823 z M280.456,391.112 C283.229,389.161 286.061,386.942 288.926,384.478 C290.8,382.868 292.483,380.674 293.85,378.064 C295.217,375.452 295.885,373.153 295.806,371.336 L294.736,347.064 C294.669,345.536 293.588,345.274 292.046,346.403 C290.503,347.535 288.976,349.712 288.245,351.822 L276.426,385.921 C275.506,388.572 275.45,390.538 276.262,391.585 C277.074,392.631 278.53,392.467 280.456,391.112 z M254.377,400.939 C256.551,401.138 258.901,400.948 261.396,400.395 C262.924,400.054 264.682,398.732 266.526,396.533 C268.37,394.334 269.786,391.873 270.663,389.343 L282.86,354.15 C283.592,352.039 283.302,350.647 282.138,350.685 C280.974,350.726 279.296,352.181 277.963,354.312 L255.54,390.119 C253.897,392.744 252.909,395.27 252.674,397.438 C252.441,399.607 253.029,400.815 254.377,400.939 z M240.483,387.301 C241.075,389.785 241.93,391.982 243.06,393.852 C243.759,395.009 245.102,395.012 246.951,393.855 C248.8,392.696 250.64,390.705 252.284,388.079 L274.706,352.272 C276.039,350.142 276.618,347.995 276.145,346.932 C275.67,345.867 274.292,346.214 272.712,347.793 L246.378,374.136 C244.485,376.028 242.89,378.379 241.715,380.997 C240.543,383.618 240.121,385.777 240.483,387.301 z M242.779,355.583 C243.41,353.194 244.648,350.72 246.401,348.352 C248.153,345.982 249.929,344.376 251.599,343.656 L273.902,334.017 C275.304,333.41 276.014,334.268 275.67,336.151 C275.325,338.03 274.034,340.356 272.455,341.935 L246.941,367.456 C244.956,369.443 243.213,370.35 241.917,370.077 C240.621,369.804 240.133,368.424 240.513,366.099 C241.056,362.753 241.814,359.237 242.779,355.583 z M258.694,316.359 C256.708,320.076 254.868,323.766 253.176,327.41 C251.908,330.14 251.438,332.42 251.82,333.999 C252.201,335.579 253.329,336.014 255.074,335.261 L276.713,325.906 C278.113,325.303 279.772,323.422 280.841,321.227 C281.91,319.032 282.06,317.2 281.211,316.669 L268.213,308.53 C267.185,307.886 265.652,308.367 263.751,309.931 C261.851,311.494 260.112,313.702 258.694,316.359" fill="#FBE964"/>
  </g>
</svg>
